<svg xmlns="http://www.w3.org/2000/svg" width="560" height="718"><g fill="none" fill-rule="nonzero"><path fill="#000" d="m379.168 280.675 2.076 18.915a102.357 102.357 0 0 1 21.48 7.615l13.522-13.382a120.594 120.594 0 0 1 19.503 13.415l-7.663 17.416a102.675 102.675 0 0 1 14.794 17.336l18.405-4.83a121.061 121.061 0 0 1 10.18 21.372l-15.345 11.25a102.604 102.604 0 0 1 4.144 22.413l18.35 5.018a120.83 120.83 0 0 1-1.867 23.594l-18.912 2.074a102.675 102.675 0 0 1-7.62 21.48l13.387 13.523a121.074 121.074 0 0 1-13.415 19.498l-17.416-7.663a102.648 102.648 0 0 1-17.336 14.795l4.827 18.404a121.02 121.02 0 0 1-21.37 10.18l-11.248-15.341a102.973 102.973 0 0 1-22.414 4.145l-5.022 18.349a120.879 120.879 0 0 1-23.594-1.867l-2.07-18.912a102.821 102.821 0 0 1-21.48-7.619l-13.527 13.383a120.848 120.848 0 0 1-19.502-13.415l7.667-17.416a102.14 102.14 0 0 1-14.79-17.34l-18.41 4.83a120.686 120.686 0 0 1-10.175-21.364l15.341-11.253a102.655 102.655 0 0 1-4.144-22.41l-18.354-5.022a120.879 120.879 0 0 1 1.867-23.594l18.915-2.07a102.842 102.842 0 0 1 7.615-21.484l-13.38-13.522a120.818 120.818 0 0 1 13.411-19.502l17.42 7.662a102.88 102.88 0 0 1 17.337-14.794l-4.83-18.402c6.773-4.084 13.929-7.499 21.368-10.184l11.25 15.35a102.5 102.5 0 0 1 22.413-4.145l5.018-18.353c7.91-.156 15.811.47 23.594 1.867Zm-226.8 42.174 1.41 12.877c5.05 1.181 9.96 2.92 14.628 5.19l9.206-9.115a82.156 82.156 0 0 1 13.28 9.135l-5.218 11.855a70.274 70.274 0 0 1 10.072 11.806l12.53-3.29a82.603 82.603 0 0 1 6.932 14.55l-10.446 7.66a69.885 69.885 0 0 1 2.82 15.26l12.493 3.42a82.453 82.453 0 0 1-1.269 16.062l-12.88 1.412a69.73 69.73 0 0 1-5.185 14.623l9.115 9.21a82.632 82.632 0 0 1-9.135 13.276l-11.855-5.218a69.902 69.902 0 0 1-11.806 10.072l3.286 12.533a82.41 82.41 0 0 1-14.547 6.929l-7.659-10.446a70.173 70.173 0 0 1-15.261 2.824l-3.419 12.493a82.122 82.122 0 0 1-16.063-1.273l-1.412-12.876a70.19 70.19 0 0 1-14.623-5.185l-9.21 9.11a82.667 82.667 0 0 1-13.28-9.134l5.222-11.859a69.606 69.606 0 0 1-10.072-11.804l-12.533 3.287a82.09 82.09 0 0 1-6.928-14.543l10.446-7.663a69.9 69.9 0 0 1-2.824-15.257l-12.493-3.419a82.164 82.164 0 0 1 1.273-16.067l12.875-1.408a69.908 69.908 0 0 1 5.186-14.627l-9.11-9.206a82.208 82.208 0 0 1 9.13-13.28l11.859 5.218a69.746 69.746 0 0 1 11.806-10.072l-3.29-12.53a81.872 81.872 0 0 1 14.547-6.932l7.663 10.446a69.613 69.613 0 0 1 15.257-2.82l3.418-12.493a81.789 81.789 0 0 1 16.063 1.269Zm147.049 72.049c-2.553 32.274 21.576 60.548 53.85 63.1 32.267 2.553 60.544-21.568 63.1-53.842 2.554-32.274-21.574-60.548-53.845-63.101-32.275-2.553-60.552 21.572-63.105 53.843ZM98.07 400.62c-1.739 21.975 14.686 41.222 36.662 42.96 21.97 1.74 41.225-14.686 42.964-36.657 1.74-21.974-14.69-41.225-36.661-42.964-21.975-1.74-41.226 14.686-42.965 36.661ZM223.134 41.965l2.453 22.39a121.24 121.24 0 0 1 25.434 9.02l16.007-15.85a142.556 142.556 0 0 1 23.088 15.885l-9.071 20.615a121.898 121.898 0 0 1 17.515 20.528l21.788-5.716a143.575 143.575 0 0 1 12.054 25.297l-18.17 13.319a121.417 121.417 0 0 1 4.907 26.534l21.723 5.943a143.14 143.14 0 0 1-2.21 27.931l-22.39 2.453a121.693 121.693 0 0 1-9.018 25.433l15.848 16.008a143.227 143.227 0 0 1-15.884 23.084l-20.615-9.071a121.683 121.683 0 0 1-20.528 17.515l5.716 21.791a143.273 143.273 0 0 1-25.297 12.047l-13.319-18.161a121.742 121.742 0 0 1-26.534 4.906l-5.943 21.723c-9.361.18-18.716-.558-27.934-2.21l-2.45-22.39a121.92 121.92 0 0 1-25.433-9.019l-16.007 15.845a143.519 143.519 0 0 1-23.092-15.88l9.079-20.619a121.212 121.212 0 0 1-17.515-20.527l-21.792 5.716a142.718 142.718 0 0 1-12.046-25.294l18.161-13.32a121.506 121.506 0 0 1-4.906-26.533l-21.728-5.944a143.117 143.117 0 0 1 2.214-27.93l22.39-2.454a121.302 121.302 0 0 1 9.02-25.433L72.803 113.59a142.741 142.741 0 0 1 15.88-23.092l20.618 9.075a121.58 121.58 0 0 1 20.528-17.515l-5.72-21.788a143.015 143.015 0 0 1 25.297-12.055l13.319 18.17a121.226 121.226 0 0 1 26.534-4.906l5.943-21.724c9.362-.187 18.717.555 27.931 2.21Zm205.275 91.624c4.919-.1 9.837.292 14.684 1.161l1.288 11.771a63.58 63.58 0 0 1 13.371 4.743l8.417-8.333a74.834 74.834 0 0 1 12.139 8.353l-4.767 10.838a63.912 63.912 0 0 1 9.206 10.79l11.453-3.009a75.289 75.289 0 0 1 6.338 13.303l-9.554 7a63.76 63.76 0 0 1 2.581 13.95l11.42 3.123a75.209 75.209 0 0 1-1.16 14.688l-11.77 1.288a63.885 63.885 0 0 1-4.744 13.371l8.333 8.417a75.465 75.465 0 0 1-8.349 12.134l-10.837-4.767a63.918 63.918 0 0 1-10.794 9.207l3.008 11.456a75.272 75.272 0 0 1-13.303 6.335l-7-9.55a64.279 64.279 0 0 1-13.95 2.58l-3.123 11.422a75.209 75.209 0 0 1-14.687-1.161l-1.289-11.771a64.112 64.112 0 0 1-13.37-4.743l-8.418 8.329a75.415 75.415 0 0 1-12.138-8.349l4.775-10.837a63.785 63.785 0 0 1-9.21-10.794l-11.457 3.007a75.367 75.367 0 0 1-6.335-13.298l9.55-7a64.04 64.04 0 0 1-2.58-13.95l-11.421-3.127a75.192 75.192 0 0 1 1.16-14.683l11.771-1.289a63.805 63.805 0 0 1 4.743-13.371l-8.329-8.417a74.985 74.985 0 0 1 8.349-12.138l10.842 4.77a63.598 63.598 0 0 1 10.79-9.21l-3.008-11.452a75.255 75.255 0 0 1 13.298-6.339l7 9.554a63.804 63.804 0 0 1 13.95-2.58Zm-299.689 43.6c-3.023 38.21 25.542 71.681 63.752 74.705 38.201 3.024 71.676-25.537 74.7-63.747 3.023-38.206-25.542-71.677-63.743-74.7-38.21-3.024-71.685 25.537-74.709 63.743Zm304.013-4.859c-20.088-1.588-37.688 13.426-39.28 33.51-1.587 20.089 13.431 37.684 33.52 39.276 20.08 1.587 37.679-13.427 39.27-33.51 1.592-20.09-13.426-37.684-33.51-39.276Z"/><path fill="none" d="M16.763 10h524.695c3.31 0 4.317.195 5.346.745.758.405 1.324.97 1.729 1.729l.056.106c.507.995.689 2.044.689 5.24V550h-540V17.82c0-3.31.194-4.318.745-5.346a4.089 4.089 0 0 1 1.729-1.73l.213-.108c.93-.45 1.97-.623 4.798-.636Z"/><path fill="#000" d="M542.655 0c4.516.034 7.001.543 9.587 1.927a14.086 14.086 0 0 1 5.831 5.83C559.504 10.434 560 13.002 560 17.82V560H0V17.82C0 13 .496 10.432 1.927 7.757a14.086 14.086 0 0 1 5.83-5.831C10.434.496 13.002 0 17.82 0Zm-.14 10H17.485c-2.827.013-3.868.186-4.798.636l-.213.109a4.089 4.089 0 0 0-1.73 1.729c-.55 1.028-.744 2.036-.744 5.345V550h540V17.82c0-3.196-.181-4.245-.69-5.24l-.055-.106a4.089 4.089 0 0 0-1.729-1.73c-1.028-.55-2.036-.744-5.345-.744Z"/><path fill="#000" d="M560 541v162c0 8.284-6.716 15-15 15H15c-8.284 0-15-6.716-15-15V541h560Z"/><g fill="#FFF"><path d="M57.992 575.89c2.6 0 5.276.01 8.028.033 2.752.021 5.45.086 8.093.195 2.643.108 5.048.314 7.215.617l-.65 9.945H64.233c-.824 0-1.474.217-1.95.65-.477.433-.716.997-.716 1.69v19.11c0 .693.239 1.257.715 1.69.477.433 1.127.65 1.95.65h16.446l.65 9.945c-2.167.26-4.572.455-7.216.585-2.643.13-5.34.206-8.092.227-2.752.022-5.427.033-8.027.033-3.077 0-5.601-.942-7.573-2.827-1.972-1.885-2.958-4.345-2.958-7.378v-24.96c0-3.033.986-5.493 2.958-7.378 1.972-1.885 4.496-2.827 7.572-2.827Zm-9.36 17.485h29.706v9.36H48.633v-9.36ZM122.407 588.5l-9.62 29.315c-.303.953-.834 1.722-1.592 2.308-.758.584-1.657.877-2.697.877H96.862c-1.04 0-1.939-.293-2.697-.877-.758-.586-1.29-1.355-1.593-2.308l-9.62-29.315h14.43l3.965 17.94c.217.997.39 2.015.52 3.055s.26 2.058.39 3.055h.845c.13-.997.282-2.015.456-3.055.173-1.04.346-2.058.52-3.055l3.9-17.94h14.43ZM141.518 587.59c6.11 0 10.443.975 13 2.925 2.556 1.95 3.856 4.832 3.9 8.645.043 3.033-.856 5.222-2.698 6.565s-5.146 2.015-9.912 2.015h-17.486v-6.435h13.65c1.474 0 2.405-.14 2.796-.422.39-.282.584-.965.584-2.048 0-1.04-.26-1.712-.78-2.015-.52-.303-1.408-.455-2.665-.455-1.256-.043-2.21.087-2.86.39-.65.303-1.094.964-1.332 1.982-.238 1.019-.358 2.611-.358 4.778 0 1.993.141 3.553.423 4.68.282 1.127.834 1.928 1.657 2.405.824.477 2.037.715 3.64.715 1.3 0 3.131-.043 5.493-.13 2.362-.087 4.93-.282 7.703-.585l1.234 8.19a22.606 22.606 0 0 1-4.875 1.82 35.98 35.98 0 0 1-5.362.91c-1.842.173-3.738.26-5.688.26-4.506 0-8.124-.628-10.855-1.885-2.73-1.257-4.69-3.13-5.882-5.622-1.192-2.492-1.787-5.58-1.787-9.263 0-4.29.606-7.702 1.82-10.237 1.213-2.536 3.174-4.366 5.882-5.493 2.708-1.127 6.294-1.69 10.758-1.69ZM187.928 587.59c6.413 0 9.62 3.033 9.62 9.1V621h-13.65v-19.955c0-.737-.174-1.246-.52-1.527-.347-.282-.954-.423-1.82-.423-.824 0-1.745.065-2.763.195-1.018.13-2.35.477-3.998 1.04l-.65-6.695c2.167-2.037 4.442-3.553 6.826-4.55 2.383-.997 4.701-1.495 6.954-1.495Zm-14.625.91 1.69 6.63 1.234.78V621h-13.65v-32.5h10.726ZM219.972 579.985v29.185c0 .823.217 1.42.65 1.788.434.368 1.149.552 2.145.552h3.446l1.495 8.71c-.91.39-2.037.704-3.38.942a50.835 50.835 0 0 1-4.063.553 38.59 38.59 0 0 1-3.607.195c-3.164 0-5.677-.802-7.54-2.405-1.864-1.603-2.795-3.835-2.795-6.695l-.066-32.825h13.715Zm7.865 8.515v8.19h-27.04v-7.865l6.24-.325h20.8ZM295.048 576.15c3.163 0 4.81 1.625 4.94 4.875l1.56 39.975h-12.675l-1.365-34.32h-.976l-4.42 22.88c-.433 2.86-2.21 4.29-5.33 4.29h-7.28c-3.076 0-4.875-1.43-5.394-4.29l-4.486-22.88h-.975L257.543 621h-12.675l1.56-39.975c.13-3.25 1.776-4.875 4.94-4.875h12.154c3.034 0 4.81 1.452 5.33 4.355l3.25 17.81c.174 1.083.315 2.188.423 3.315.108 1.127.206 2.253.293 3.38h.584c.13-1.127.25-2.253.358-3.38.108-1.127.25-2.232.423-3.315l3.055-17.81c.52-2.903 2.318-4.355 5.394-4.355h12.416ZM325.792 587.59c3.077 0 5.666.4 7.768 1.202 2.102.802 3.705 2.167 4.81 4.096 1.105 1.928 1.657 4.582 1.657 7.962V621h-10.855l-1.885-6.955-.91-1.3v-11.96c-.043-1.127-.335-1.95-.877-2.47-.542-.52-1.528-.78-2.958-.78-1.69 0-3.759.022-6.207.065-2.448.043-5.06.13-7.832.26l-1.236-8.645c1.647-.303 3.608-.574 5.883-.813 2.275-.238 4.54-.433 6.793-.585 2.253-.151 4.203-.227 5.85-.227Zm8.97 13.455-.065 6.565h-13.455c-.823 0-1.44.184-1.852.553-.412.368-.618.855-.618 1.462v1.04c0 .563.228 1.04.683 1.43.455.39 1.137.585 2.048.585 1.04 0 2.123-.25 3.25-.747a16.61 16.61 0 0 0 3.25-1.918c1.04-.78 1.928-1.582 2.664-2.405v4.16c-.303.737-.78 1.668-1.43 2.795-.65 1.127-1.527 2.253-2.632 3.38-1.105 1.127-2.47 2.07-4.095 2.827-1.625.759-3.564 1.138-5.817 1.138-1.994 0-3.846-.347-5.558-1.04-1.712-.693-3.077-1.722-4.095-3.087-1.018-1.365-1.528-3.066-1.528-5.103v-3.25c0-2.6.965-4.647 2.893-6.142s4.54-2.243 7.832-2.243h18.525ZM361.607 587.59c1.344 0 2.817.065 4.42.195a36.82 36.82 0 0 1 4.81.715c1.604.347 3.055.845 4.356 1.495l-1.365 8.45H363.947c-1.387 0-2.481.173-3.283.52-.802.347-1.365.964-1.69 1.852-.325.889-.488 2.178-.488 3.868s.163 2.99.488 3.9c.325.91.888 1.538 1.69 1.885.802.347 1.896.52 3.282.52.737 0 1.658-.01 2.763-.033a128.77 128.77 0 0 0 3.673-.13 83.958 83.958 0 0 0 4.03-.292l1.234 8.515c-1.906.997-4.116 1.7-6.63 2.113a46.574 46.574 0 0 1-7.54.617c-4.246 0-7.637-.553-10.172-1.657-2.535-1.106-4.355-2.915-5.46-5.428-1.105-2.513-1.658-5.85-1.658-10.01 0-4.203.564-7.55 1.69-10.042 1.127-2.492 2.969-4.29 5.525-5.395 2.557-1.106 5.959-1.658 10.205-1.658ZM404.962 587.59c6.414 0 9.62 3.033 9.62 9.1V621h-13.65v-19.955c0-.737-.173-1.246-.52-1.527-.346-.282-.953-.423-1.82-.423-.823 0-1.744.065-2.762.195s-2.35.477-3.998 1.04l-1.43-5.915c2.297-2.297 4.713-4.008 7.248-5.135 2.535-1.127 4.973-1.69 7.313-1.69Zm-11.7-12.09.065 9.685c0 1.95-.14 3.824-.422 5.623-.282 1.798-.596 3.239-.942 4.322l1.3.78V621h-13.65v-45.5h13.65ZM433.822 588.5V621h-13.585v-32.5h13.585Zm-3.9-14.885c2.644 0 3.965 1.343 3.965 4.03v3.315c0 2.687-1.321 4.03-3.965 4.03h-5.785c-2.643 0-3.965-1.343-3.965-4.03v-3.315c0-2.687 1.322-4.03 3.965-4.03h5.785ZM465.022 587.59c6.414 0 9.62 3.033 9.62 9.1V621h-13.65v-19.955c0-.737-.173-1.246-.52-1.527-.346-.282-.953-.423-1.82-.423-.823 0-1.744.065-2.762.195s-2.35.477-3.998 1.04l-.65-6.695c2.167-2.037 4.442-3.553 6.825-4.55 2.384-.997 4.702-1.495 6.955-1.495Zm-14.625.91 1.69 6.63 1.236.78V621h-13.65v-32.5h10.724ZM497.327 587.59c6.11 0 10.444.975 13 2.925 2.557 1.95 3.857 4.832 3.9 8.645.044 3.033-.855 5.222-2.697 6.565s-5.146 2.015-9.913 2.015h-17.485v-6.435h13.65c1.474 0 2.406-.14 2.796-.422.39-.282.584-.965.584-2.048 0-1.04-.26-1.712-.78-2.015-.52-.303-1.408-.455-2.665-.455-1.256-.043-2.21.087-2.86.39-.65.303-1.094.964-1.332 1.982-.238 1.019-.358 2.611-.358 4.778 0 1.993.141 3.553.423 4.68.282 1.127.834 1.928 1.658 2.405.823.477 2.036.715 3.64.715 1.3 0 3.13-.043 5.492-.13 2.362-.087 4.93-.282 7.702-.585l1.236 8.19a22.606 22.606 0 0 1-4.875 1.82 35.98 35.98 0 0 1-5.363.91c-1.842.173-3.738.26-5.688.26-4.506 0-8.125-.628-10.855-1.885-2.73-1.257-4.69-3.13-5.882-5.622-1.192-2.492-1.788-5.58-1.788-9.263 0-4.29.607-7.702 1.82-10.237 1.214-2.536 3.175-4.366 5.883-5.493 2.708-1.127 6.294-1.69 10.757-1.69Z"/></g><path fill="#F5F2E9" d="M53 653c4.736 0 8.662 3.466 9.382 7.999l66.651-.001v3.003h-66.65C61.662 668.534 57.735 672 53 672a9.5 9.5 0 0 1 0-19Zm444.189 0c.176 0 .35.041.507.12l16.733 8.366a1.133 1.133 0 0 1 0 2.028l-16.733 8.366a1.133 1.133 0 0 1-1.64-1.014l-.001-6.866h-65.022v-3h65.022v-6.867c0-.584.443-1.065 1.01-1.126l.124-.007Z"/><g fill="#FFF"><path d="M150.22 647.38c1.44.013 2.947.1 4.52.26 1.573.16 3.073.447 4.5.86l-.56 4.04a82.97 82.97 0 0 0-2.74-.08l-2.98-.04c-1.013-.013-2.033-.02-3.06-.02-.68 0-1.277.02-1.79.06-.513.04-.95.14-1.31.3-.36.16-.65.42-.87.78-.22.36-.377.853-.47 1.48-.067.547-.053 1 .04 1.36.093.36.317.663.67.91.353.247.87.517 1.55.81l5.02 2.1c1.453.613 2.553 1.29 3.3 2.03a5.11 5.11 0 0 1 1.44 2.61c.213 1 .233 2.18.06 3.54-.253 2.053-.777 3.633-1.57 4.74-.793 1.107-1.94 1.867-3.44 2.28-1.5.413-3.463.62-5.89.62-.987 0-2.337-.07-4.05-.21-1.713-.14-3.557-.43-5.53-.87l.62-4.32c1.56.04 2.91.08 4.05.12 1.14.04 2.097.063 2.87.07.773.007 1.387.01 1.84.01 1.173 0 2.107-.07 2.8-.21.693-.14 1.217-.407 1.57-.8.353-.393.583-.977.69-1.75.093-.6.09-1.07-.01-1.41-.1-.34-.313-.627-.64-.86-.327-.233-.79-.47-1.39-.71l-5.26-2.26c-1.413-.627-2.493-1.333-3.24-2.12-.747-.787-1.227-1.677-1.44-2.67-.213-.993-.247-2.09-.1-3.29.2-1.533.567-2.783 1.1-3.75.533-.967 1.247-1.71 2.14-2.23s1.97-.88 3.23-1.08c1.26-.2 2.703-.3 4.33-.3ZM171.58 650.26l-2.7 19.04c-.107.72-.043 1.217.19 1.49.233.273.737.41 1.51.41h2.7l.28 4.02c-.52.173-1.13.313-1.83.42-.7.107-1.383.187-2.05.24-.667.053-1.213.08-1.64.08-1.853 0-3.247-.493-4.18-1.48-.933-.987-1.273-2.34-1.02-4.06l2.92-20.16h5.82Zm4.72 5.5-.54 3.86H160.9l.46-3.66 3.86-.2h11.08ZM188.88 655.24c.693 0 1.473.03 2.34.09.867.06 1.743.147 2.63.26.887.113 1.723.233 2.51.36.787.127 1.44.257 1.96.39l-4.02 3.18a197.61 197.61 0 0 0-2.93-.09c-.887-.02-1.717-.03-2.49-.03-.88 0-1.627.067-2.24.2-.613.133-1.12.397-1.52.79-.4.393-.737.98-1.01 1.76s-.503 1.817-.69 3.11c-.227 1.653-.347 2.917-.36 3.79-.013.873.137 1.467.45 1.78.313.313.817.463 1.51.45.733-.027 1.49-.267 2.27-.72.78-.453 1.563-1.073 2.35-1.86.787-.787 1.54-1.68 2.26-2.68l1.02 1.94c-.533 1.573-1.287 2.95-2.26 4.13a10.842 10.842 0 0 1-3.42 2.78c-1.307.673-2.76 1.043-4.36 1.11-1.733.067-3.057-.283-3.97-1.05-.913-.767-1.477-1.96-1.69-3.58-.213-1.62-.14-3.657.22-6.11.347-2.28.837-4.09 1.47-5.43.633-1.34 1.423-2.337 2.37-2.99.947-.653 2.053-1.08 3.32-1.28 1.267-.2 2.693-.3 4.28-.3Zm3.62.74 5.82.36-2.7 19.16h-4.58l.1-4.48-.72-.48 2.08-14.56ZM211.62 650.26l-2.7 19.04c-.107.72-.043 1.217.19 1.49.233.273.737.41 1.51.41h2.7l.28 4.02c-.52.173-1.13.313-1.83.42-.7.107-1.383.187-2.05.24-.667.053-1.213.08-1.64.08-1.853 0-3.247-.493-4.18-1.48-.933-.987-1.273-2.34-1.02-4.06l2.92-20.16h5.82Zm4.72 5.5-.54 3.86h-14.86l.46-3.66 3.86-.2h11.08ZM228.76 655.24c2.413 0 4.28.26 5.6.78 1.32.52 2.207 1.287 2.66 2.3.453 1.013.56 2.267.32 3.76-.187 1.227-.59 2.193-1.21 2.9-.62.707-1.48 1.233-2.58 1.58s-2.49.587-4.17.72l-10.06.84.44-3.26 8.5-.84c.72-.067 1.31-.173 1.77-.32.46-.147.823-.39 1.09-.73.267-.34.447-.823.54-1.45.093-.64.047-1.117-.14-1.43-.187-.313-.52-.517-1-.61-.48-.093-1.127-.133-1.94-.12-.813 0-1.5.083-2.06.25a2.997 2.997 0 0 0-1.4.87c-.373.413-.683 1-.93 1.76s-.47 1.747-.67 2.96c-.267 1.733-.31 3.04-.13 3.92.18.88.593 1.467 1.24 1.76.647.293 1.537.44 2.67.44.64 0 1.413-.02 2.32-.06a92.675 92.675 0 0 0 5.36-.4l.4 3.7a14.2 14.2 0 0 1-2.72.84 25.05 25.05 0 0 1-3.07.45 35.14 35.14 0 0 1-2.93.13c-2.64 0-4.683-.397-6.13-1.19-1.447-.793-2.407-1.983-2.88-3.57-.473-1.587-.577-3.553-.31-5.9.24-2.027.647-3.697 1.22-5.01.573-1.313 1.32-2.337 2.24-3.07.92-.733 2.04-1.25 3.36-1.55 1.32-.3 2.853-.45 4.6-.45ZM259.84 655.24c2.427 0 4.37.35 5.83 1.05 1.46.7 2.453 1.827 2.98 3.38.527 1.553.603 3.63.23 6.23-.347 2.48-.94 4.46-1.78 5.94-.84 1.48-2.023 2.543-3.55 3.19-1.527.647-3.503.97-5.93.97-2.4 0-4.337-.347-5.81-1.04-1.473-.693-2.483-1.813-3.03-3.36-.547-1.547-.64-3.6-.28-6.16.36-2.507.957-4.503 1.79-5.99.833-1.487 2.023-2.56 3.57-3.22 1.547-.66 3.54-.99 5.98-.99Zm-.08 4.28c-1.08 0-1.947.173-2.6.52-.653.347-1.17.977-1.55 1.89-.38.913-.697 2.237-.95 3.97-.213 1.533-.273 2.723-.18 3.57.093.847.407 1.433.94 1.76.533.327 1.32.49 2.36.49 1.08 0 1.94-.18 2.58-.54.64-.36 1.147-.997 1.52-1.91.373-.913.68-2.19.92-3.83.227-1.587.29-2.803.19-3.65-.1-.847-.407-1.437-.92-1.77-.513-.333-1.283-.5-2.31-.5ZM283.18 646.68c.533 0 1.193.013 1.98.04a50.2 50.2 0 0 1 2.4.14c.813.067 1.507.153 2.08.26l-.9 3.76h-3.56c-1.04 0-1.797.193-2.27.58-.473.387-.797 1.127-.97 2.22l-3.42 23.66c-.253 1.827-.913 3.283-1.98 4.37-1.067 1.087-2.7 1.63-4.9 1.63-.68 0-1.46-.037-2.34-.11a76.367 76.367 0 0 1-3.08-.33l.9-3.78h2.5c1.053 0 1.817-.193 2.29-.58.473-.387.79-1.12.95-2.2l3.36-23.66c.28-1.853.96-3.317 2.04-4.39 1.08-1.073 2.72-1.61 4.92-1.61Zm3.92 9.08-.54 3.86h-14.7l.46-3.66 3.58-.2h11.2ZM305.68 650.26l-2.7 19.04c-.107.72-.043 1.217.19 1.49.233.273.737.41 1.51.41h2.7l.28 4.02c-.52.173-1.13.313-1.83.42-.7.107-1.383.187-2.05.24-.667.053-1.213.08-1.64.08-1.853 0-3.247-.493-4.18-1.48-.933-.987-1.273-2.34-1.02-4.06l2.92-20.16h5.82Zm4.72 5.5-.54 3.86H295l.46-3.66 3.86-.2h11.08ZM327.04 655.24c1.84 0 3.207.477 4.1 1.43.893.953 1.213 2.337.96 4.15l-2.08 14.68h-5.9l1.86-13.08c.12-.867.073-1.45-.14-1.75-.213-.3-.647-.45-1.3-.45-.96 0-1.933.27-2.92.81-.987.54-2.193 1.377-3.62 2.51l-.68-3c1.787-1.8 3.49-3.133 5.11-4s3.157-1.3 4.61-1.3Zm-6.42-7.74-.96 6.98a26.062 26.062 0 0 1-.74 3.68c-.333 1.2-.64 2.147-.92 2.84l.62.46-1.94 14.04h-5.9l3.94-28h5.9ZM346.76 655.24c2.413 0 4.28.26 5.6.78 1.32.52 2.207 1.287 2.66 2.3.453 1.013.56 2.267.32 3.76-.187 1.227-.59 2.193-1.21 2.9-.62.707-1.48 1.233-2.58 1.58s-2.49.587-4.17.72l-10.06.84.44-3.26 8.5-.84c.72-.067 1.31-.173 1.77-.32.46-.147.823-.39 1.09-.73.267-.34.447-.823.54-1.45.093-.64.047-1.117-.14-1.43-.187-.313-.52-.517-1-.61-.48-.093-1.127-.133-1.94-.12-.813 0-1.5.083-2.06.25a2.997 2.997 0 0 0-1.4.87c-.373.413-.683 1-.93 1.76s-.47 1.747-.67 2.96c-.267 1.733-.31 3.04-.13 3.92.18.88.593 1.467 1.24 1.76.647.293 1.537.44 2.67.44.64 0 1.413-.02 2.32-.06a92.675 92.675 0 0 0 5.36-.4l.4 3.7a14.2 14.2 0 0 1-2.72.84 25.05 25.05 0 0 1-3.07.45 35.14 35.14 0 0 1-2.93.13c-2.64 0-4.683-.397-6.13-1.19-1.447-.793-2.407-1.983-2.88-3.57-.473-1.587-.577-3.553-.31-5.9.24-2.027.647-3.697 1.22-5.01.573-1.313 1.32-2.337 2.24-3.07.92-.733 2.04-1.25 3.36-1.55 1.32-.3 2.853-.45 4.6-.45ZM382.3 647.9c.507 0 .95.163 1.33.49.38.327.597.737.65 1.23l4.36 25.88h-6.1l-2.7-20.34a25.173 25.173 0 0 1-.12-1.38c-.027-.453-.047-.9-.06-1.34h-1.16c-.12.387-.257.817-.41 1.29-.153.473-.323.937-.51 1.39l-8.52 20.38h-6.36l11.64-26.1c.187-.507.473-.883.86-1.13.387-.247.833-.37 1.34-.37h5.76Zm2.14 15.68-.56 4.7h-14.26l.58-4.7h14.24ZM398.34 655.76l.04 4.72.5.54-1.98 14.48h-5.92l2.78-19.74h4.58Zm9.68-.52-1.28 5.44h-1.44c-.947 0-1.957.21-3.03.63-1.073.42-2.43 1.037-4.07 1.85l-.24-3.44c1.573-1.48 3.107-2.597 4.6-3.35 1.493-.753 2.907-1.13 4.24-1.13h1.22ZM419.2 650.26l-2.7 19.04c-.107.72-.043 1.217.19 1.49.233.273.737.41 1.51.41h2.7l.28 4.02c-.52.173-1.13.313-1.83.42-.7.107-1.383.187-2.05.24-.667.053-1.213.08-1.64.08-1.853 0-3.247-.493-4.18-1.48-.933-.987-1.273-2.34-1.02-4.06l2.92-20.16h5.82Zm4.72 5.5-.54 3.86h-14.86l.46-3.66 3.86-.2h11.08Z"/></g></g></svg>