<?xml version="1.0" encoding="UTF-8" standalone="no"?><!DOCTYPE svg PUBLIC "-//W3C//DTD SVG 1.1//EN" "http://www.w3.org/Graphics/SVG/1.1/DTD/svg11.dtd"><svg width="100%" height="100%" viewBox="0 0 560 649" version="1.1" xmlns="http://www.w3.org/2000/svg" xmlns:xlink="http://www.w3.org/1999/xlink" xml:space="preserve" xmlns:serif="http://www.serif.com/" style="fill-rule:evenodd;clip-rule:evenodd;stroke-linejoin:round;stroke-miterlimit:2;"><g><path d="M379.168,280.675l2.076,18.915c7.421,1.731 14.626,4.285 21.48,7.615l13.522,-13.382c6.925,3.821 13.458,8.315 19.503,13.415l-7.663,17.416c5.559,5.212 10.521,11.026 14.794,17.336l18.405,-4.83c4.083,6.774 7.493,13.933 10.18,21.372l-15.345,11.25c2.209,7.294 3.599,14.811 4.144,22.413l18.35,5.018c0.151,7.907 -0.474,15.809 -1.867,23.594l-18.912,2.074c-1.735,7.421 -4.291,14.625 -7.62,21.48l13.387,13.523c-3.824,6.922 -8.317,13.452 -13.415,19.498l-17.416,-7.663c-5.212,5.56 -11.026,10.522 -17.336,14.795l4.827,18.404c-6.774,4.083 -13.931,7.493 -21.37,10.18l-11.248,-15.341c-7.295,2.207 -14.812,3.597 -22.414,4.145l-5.022,18.349c-7.907,0.151 -15.809,-0.474 -23.594,-1.867l-2.07,-18.912c-7.42,-1.736 -14.624,-4.291 -21.48,-7.619l-13.527,13.383c-6.924,-3.823 -13.456,-8.316 -19.502,-13.415l7.667,-17.416c-5.561,-5.21 -10.522,-11.026 -14.79,-17.34l-18.41,4.83c-4.083,-6.771 -7.491,-13.927 -10.175,-21.364l15.341,-11.253c-2.209,-7.293 -3.599,-14.809 -4.144,-22.41l-18.354,-5.022c-0.151,-7.907 0.474,-15.809 1.867,-23.594l18.915,-2.07c1.734,-7.421 4.288,-14.627 7.615,-21.484l-13.38,-13.522c3.821,-6.924 8.313,-13.456 13.411,-19.502l17.42,7.662c5.213,-5.558 11.028,-10.52 17.337,-14.794l-4.83,-18.402c6.773,-4.084 13.929,-7.499 21.368,-10.184l11.25,15.35c7.294,-2.211 14.811,-3.601 22.413,-4.145l5.018,-18.353c7.91,-0.156 15.811,0.47 23.594,1.867Zm-226.8,42.174l1.41,12.877c5.05,1.181 9.96,2.92 14.628,5.19l9.206,-9.115c4.715,2.602 9.163,5.662 13.28,9.135l-5.218,11.855c3.783,3.551 7.161,7.511 10.072,11.806l12.53,-3.29c2.779,4.612 5.101,9.486 6.932,14.55l-10.446,7.66c1.504,4.966 2.449,10.084 2.82,15.26l12.493,3.42c0.102,5.383 -0.323,10.762 -1.269,16.062l-12.88,1.412c-1.179,5.052 -2.918,9.957 -5.185,14.623l9.115,9.21c-2.605,4.712 -5.665,9.159 -9.135,13.276l-11.855,-5.218c-3.549,3.785 -7.509,7.163 -11.806,10.072l3.286,12.533c-4.611,2.779 -9.483,5.1 -14.547,6.929l-7.659,-10.446c-4.967,1.503 -10.085,2.45 -15.261,2.824l-3.419,12.493c-5.383,0.103 -10.763,-0.323 -16.063,-1.273l-1.412,-12.876c-5.051,-1.183 -9.955,-2.922 -14.623,-5.185l-9.21,9.11c-4.714,-2.605 -9.161,-5.664 -13.28,-9.134l5.222,-11.859c-3.787,-3.547 -7.165,-7.506 -10.072,-11.804l-12.533,3.287c-2.781,-4.609 -5.101,-9.48 -6.928,-14.543l10.446,-7.663c-1.505,-4.965 -2.452,-10.082 -2.824,-15.257l-12.493,-3.419c-0.103,-5.384 0.323,-10.766 1.273,-16.067l12.875,-1.408c1.18,-5.053 2.92,-9.959 5.186,-14.627l-9.11,-9.206c2.601,-4.715 5.659,-9.163 9.13,-13.28l11.859,5.218c3.548,-3.786 7.508,-7.164 11.806,-10.072l-3.29,-12.53c4.609,-2.783 9.482,-5.105 14.547,-6.932l7.663,10.446c4.965,-1.506 10.082,-2.451 15.257,-2.82l3.418,-12.493c5.383,-0.107 10.763,0.318 16.063,1.269l0.001,0Zm147.049,72.049c-2.553,32.274 21.576,60.548 53.85,63.1c32.267,2.553 60.544,-21.568 63.1,-53.842c2.554,-32.274 -21.574,-60.548 -53.845,-63.101c-32.275,-2.553 -60.552,21.572 -63.105,53.843Zm-201.347,5.722c-1.739,21.975 14.686,41.222 36.662,42.96c21.97,1.74 41.225,-14.686 42.964,-36.657c1.74,-21.974 -14.69,-41.225 -36.661,-42.964c-21.975,-1.74 -41.226,14.686 -42.965,36.661Zm125.064,-358.655l2.453,22.39c8.787,2.051 17.318,5.076 25.434,9.02l16.007,-15.85c8.199,4.524 15.932,9.845 23.088,15.885l-9.071,20.615c6.58,6.173 12.454,13.058 17.515,20.528l21.788,-5.716c4.833,8.019 8.87,16.492 12.054,25.297l-18.17,13.319c2.616,8.635 4.262,17.535 4.907,26.534l21.723,5.943c0.179,9.36 -0.562,18.715 -2.21,27.931l-22.39,2.453c-2.054,8.786 -5.078,17.316 -9.018,25.433l15.848,16.008c-4.527,8.195 -9.848,15.927 -15.884,23.084l-20.615,-9.071c-6.172,6.581 -13.057,12.456 -20.528,17.515l5.716,21.791c-8.018,4.833 -16.491,8.867 -25.297,12.047l-13.319,-18.161c-8.636,2.613 -17.535,4.259 -26.534,4.906l-5.943,21.723c-9.361,0.18 -18.716,-0.558 -27.934,-2.21l-2.45,-22.39c-8.785,-2.056 -17.315,-5.081 -25.433,-9.019l-16.007,15.845c-8.197,-4.527 -15.931,-9.846 -23.092,-15.88l9.079,-20.619c-6.584,-6.169 -12.459,-13.054 -17.515,-20.527l-21.792,5.716c-4.835,-8.016 -8.87,-16.488 -12.046,-25.294l18.161,-13.32c-2.615,-8.635 -4.261,-17.534 -4.906,-26.533l-21.728,-5.944c-0.177,-9.36 0.564,-18.715 2.214,-27.93l22.39,-2.454c2.051,-8.787 5.077,-17.317 9.02,-25.433l-15.846,-16.007c4.523,-8.2 9.842,-15.934 15.88,-23.092l20.618,9.075c6.172,-6.582 13.057,-12.456 20.528,-17.515l-5.72,-21.788c8.017,-4.837 16.49,-8.874 25.297,-12.055l13.319,18.17c8.635,-2.618 17.534,-4.263 26.534,-4.906l5.943,-21.724c9.362,-0.187 18.717,0.555 27.931,2.21l0.001,-0Zm205.275,91.624c4.919,-0.1 9.837,0.292 14.684,1.161l1.288,11.771c4.62,1.077 9.105,2.668 13.371,4.743l8.417,-8.333c4.311,2.378 8.377,5.176 12.139,8.353l-4.767,10.838c3.459,3.244 6.547,6.863 9.206,10.79l11.453,-3.009c2.543,4.216 4.665,8.672 6.338,13.303l-9.554,7c1.377,4.54 2.242,9.218 2.581,13.95l11.42,3.123c0.095,4.922 -0.294,9.842 -1.16,14.688l-11.77,1.288c-1.08,4.619 -2.671,9.104 -4.744,13.371l8.333,8.417c-2.381,4.307 -5.177,8.371 -8.349,12.134l-10.837,-4.767c-3.245,3.46 -6.866,6.548 -10.794,9.207l3.008,11.456c-4.216,2.542 -8.672,4.663 -13.303,6.335l-7,-9.55c-4.541,1.372 -9.219,2.237 -13.95,2.58l-3.123,11.422c-4.922,0.095 -9.841,-0.294 -14.687,-1.161l-1.289,-11.771c-4.618,-1.082 -9.103,-2.672 -13.37,-4.743l-8.418,8.329c-4.309,-2.38 -8.374,-5.177 -12.138,-8.349l4.775,-10.837c-3.462,-3.244 -6.551,-6.865 -9.21,-10.794l-11.457,3.007c-2.541,-4.215 -4.663,-8.669 -6.335,-13.298l9.55,-7c-1.374,-4.54 -2.239,-9.219 -2.58,-13.95l-11.421,-3.127c-0.095,-4.92 0.294,-9.838 1.16,-14.683l11.771,-1.289c1.079,-4.619 2.67,-9.104 4.743,-13.371l-8.329,-8.417c2.378,-4.31 5.174,-8.376 8.349,-12.138l10.842,4.77c3.242,-3.463 6.861,-6.552 10.79,-9.21l-3.008,-11.452c4.215,-2.543 8.669,-4.666 13.298,-6.339l7,9.554c4.54,-1.376 9.219,-2.241 13.95,-2.58l3.127,-11.422Zm-299.689,43.6c-3.023,38.21 25.542,71.681 63.752,74.705c38.201,3.024 71.676,-25.537 74.7,-63.747c3.023,-38.206 -25.542,-71.677 -63.743,-74.7c-38.21,-3.024 -71.685,25.537 -74.709,63.743l0,-0.001Zm304.013,-4.859c-20.088,-1.588 -37.688,13.426 -39.28,33.51c-1.587,20.089 13.431,37.684 33.52,39.276c20.08,1.587 37.679,-13.427 39.27,-33.51c1.592,-20.09 -13.426,-37.684 -33.51,-39.276Z" style="fill:#fff;fill-rule:nonzero;"/><path d="M542.655,0c4.516,0.034 7.001,0.543 9.587,1.927c2.481,1.318 4.513,3.349 5.831,5.83c1.431,2.677 1.927,5.245 1.927,10.063l0,542.18l-560,0l0,-542.18c0,-4.82 0.496,-7.388 1.927,-10.063c1.318,-2.481 3.349,-4.513 5.83,-5.831c2.677,-1.43 5.245,-1.926 10.063,-1.926l524.835,0Zm-0.14,10l-525.03,0c-2.827,0.013 -3.868,0.186 -4.798,0.636l-0.213,0.109c-0.739,0.386 -1.343,0.99 -1.73,1.729c-0.55,1.028 -0.744,2.036 -0.744,5.345l0,532.181l540,0l0,-532.18c0,-3.196 -0.181,-4.245 -0.69,-5.24l-0.055,-0.106c-0.386,-0.739 -0.99,-1.343 -1.729,-1.73c-1.028,-0.55 -2.036,-0.744 -5.345,-0.744l0.334,0Z" style="fill:#fff;fill-rule:nonzero;"/><path d="M560,541l0,98.847c0,5.055 -6.716,9.153 -15,9.153l-530,0c-8.284,0 -15,-4.098 -15,-9.153l0,-98.847l560,0Z" style="fill:#fff;fill-rule:nonzero;"/><g><path d="M57.992,575.89c2.6,0 5.276,0.01 8.028,0.033c2.752,0.021 5.45,0.086 8.093,0.195c2.643,0.108 5.048,0.314 7.215,0.617l-0.65,9.945l-16.445,0c-0.824,0 -1.474,0.217 -1.95,0.65c-0.477,0.433 -0.716,0.997 -0.716,1.69l0,19.11c0,0.693 0.239,1.257 0.715,1.69c0.477,0.433 1.127,0.65 1.95,0.65l16.446,0l0.65,9.945c-2.167,0.26 -4.572,0.455 -7.216,0.585c-2.643,0.13 -5.34,0.206 -8.092,0.227c-2.752,0.022 -5.427,0.033 -8.027,0.033c-3.077,0 -5.601,-0.942 -7.573,-2.827c-1.972,-1.885 -2.958,-4.345 -2.958,-7.378l0,-24.96c0,-3.033 0.986,-5.493 2.958,-7.378c1.972,-1.885 4.496,-2.827 7.572,-2.827Zm-9.36,17.485l29.706,0l0,9.36l-29.705,0l0,-9.36l-0.001,0Zm73.775,-4.875l-9.62,29.315c-0.303,0.953 -0.834,1.722 -1.592,2.308c-0.758,0.584 -1.657,0.877 -2.697,0.877l-11.636,0c-1.04,0 -1.939,-0.293 -2.697,-0.877c-0.758,-0.586 -1.29,-1.355 -1.593,-2.308l-9.62,-29.315l14.43,0l3.965,17.94c0.217,0.997 0.39,2.015 0.52,3.055c0.13,1.04 0.26,2.058 0.39,3.055l0.845,0c0.13,-0.997 0.282,-2.015 0.456,-3.055c0.173,-1.04 0.346,-2.058 0.52,-3.055l3.9,-17.94l14.43,0l-0.001,0Zm19.111,-0.91c6.11,0 10.443,0.975 13,2.925c2.556,1.95 3.856,4.832 3.9,8.645c0.043,3.033 -0.856,5.222 -2.698,6.565c-1.842,1.343 -5.146,2.015 -9.912,2.015l-17.486,0l0,-6.435l13.65,0c1.474,0 2.405,-0.14 2.796,-0.422c0.39,-0.282 0.584,-0.965 0.584,-2.048c0,-1.04 -0.26,-1.712 -0.78,-2.015c-0.52,-0.303 -1.408,-0.455 -2.665,-0.455c-1.256,-0.043 -2.21,0.087 -2.86,0.39c-0.65,0.303 -1.094,0.964 -1.332,1.982c-0.238,1.019 -0.358,2.611 -0.358,4.778c0,1.993 0.141,3.553 0.423,4.68c0.282,1.127 0.834,1.928 1.657,2.405c0.824,0.477 2.037,0.715 3.64,0.715c1.3,0 3.131,-0.043 5.493,-0.13c2.362,-0.087 4.93,-0.282 7.703,-0.585l1.234,8.19c-1.55,0.792 -3.185,1.403 -4.875,1.82c-1.762,0.438 -3.554,0.742 -5.362,0.91c-1.842,0.173 -3.738,0.26 -5.688,0.26c-4.506,0 -8.124,-0.628 -10.855,-1.885c-2.73,-1.257 -4.69,-3.13 -5.882,-5.622c-1.192,-2.492 -1.787,-5.58 -1.787,-9.263c0,-4.29 0.606,-7.702 1.82,-10.237c1.213,-2.536 3.174,-4.366 5.882,-5.493c2.708,-1.127 6.294,-1.69 10.758,-1.69Zm46.41,0c6.413,0 9.62,3.033 9.62,9.1l0,24.31l-13.65,0l0,-19.955c0,-0.737 -0.174,-1.246 -0.52,-1.527c-0.347,-0.282 -0.954,-0.423 -1.82,-0.423c-0.824,0 -1.745,0.065 -2.763,0.195c-1.018,0.13 -2.35,0.477 -3.998,1.04l-0.65,-6.695c2.167,-2.037 4.442,-3.553 6.826,-4.55c2.383,-0.997 4.701,-1.495 6.954,-1.495l0.001,0Zm-14.625,0.91l1.69,6.63l1.234,0.78l0,25.09l-13.65,0l0,-32.5l10.726,0Zm46.669,-8.515l0,29.185c0,0.823 0.217,1.42 0.65,1.788c0.434,0.368 1.149,0.552 2.145,0.552l3.446,0l1.495,8.71c-0.91,0.39 -2.037,0.704 -3.38,0.942c-1.346,0.239 -2.702,0.423 -4.063,0.553c-1.199,0.121 -2.402,0.186 -3.607,0.195c-3.164,0 -5.677,-0.802 -7.54,-2.405c-1.864,-1.603 -2.795,-3.835 -2.795,-6.695l-0.066,-32.825l13.715,0Zm7.865,8.515l0,8.19l-27.04,0l0,-7.865l6.24,-0.325l20.8,0Zm67.211,-12.35c3.163,0 4.81,1.625 4.94,4.875l1.56,39.975l-12.675,0l-1.365,-34.32l-0.976,0l-4.42,22.88c-0.433,2.86 -2.21,4.29 -5.33,4.29l-7.28,0c-3.076,0 -4.875,-1.43 -5.394,-4.29l-4.486,-22.88l-0.975,0l-1.104,34.32l-12.675,0l1.56,-39.975c0.13,-3.25 1.776,-4.875 4.94,-4.875l12.154,0c3.034,0 4.81,1.452 5.33,4.355l3.25,17.81c0.174,1.083 0.315,2.188 0.423,3.315c0.108,1.127 0.206,2.253 0.293,3.38l0.584,0c0.13,-1.127 0.25,-2.253 0.358,-3.38c0.108,-1.127 0.25,-2.232 0.423,-3.315l3.055,-17.81c0.52,-2.903 2.318,-4.355 5.394,-4.355l12.416,0Zm30.744,11.44c3.077,0 5.666,0.4 7.768,1.202c2.102,0.802 3.705,2.167 4.81,4.096c1.105,1.928 1.657,4.582 1.657,7.962l0,20.15l-10.855,0l-1.885,-6.955l-0.91,-1.3l0,-11.96c-0.043,-1.127 -0.335,-1.95 -0.877,-2.47c-0.542,-0.52 -1.528,-0.78 -2.958,-0.78c-1.69,0 -3.759,0.022 -6.207,0.065c-2.448,0.043 -5.06,0.13 -7.832,0.26l-1.236,-8.645c1.647,-0.303 3.608,-0.574 5.883,-0.813c2.275,-0.238 4.54,-0.433 6.793,-0.585c2.253,-0.151 4.203,-0.227 5.85,-0.227l-0.001,0Zm8.97,13.455l-0.065,6.565l-13.455,0c-0.823,0 -1.44,0.184 -1.852,0.553c-0.412,0.368 -0.618,0.855 -0.618,1.462l0,1.04c0,0.563 0.228,1.04 0.683,1.43c0.455,0.39 1.137,0.585 2.048,0.585c1.04,0 2.123,-0.25 3.25,-0.747c1.153,-0.514 2.243,-1.157 3.25,-1.918c1.04,-0.78 1.928,-1.582 2.664,-2.405l0,4.16c-0.303,0.737 -0.78,1.668 -1.43,2.795c-0.65,1.127 -1.527,2.253 -2.632,3.38c-1.105,1.127 -2.47,2.07 -4.095,2.827c-1.625,0.759 -3.564,1.138 -5.817,1.138c-1.994,0 -3.846,-0.347 -5.558,-1.04c-1.712,-0.693 -3.077,-1.722 -4.095,-3.087c-1.018,-1.365 -1.528,-3.066 -1.528,-5.103l0,-3.25c0,-2.6 0.965,-4.647 2.893,-6.142c1.928,-1.495 4.54,-2.243 7.832,-2.243l18.525,0Zm26.845,-13.455c1.344,0 2.817,0.065 4.42,0.195c1.617,0.132 3.224,0.371 4.81,0.715c1.604,0.347 3.055,0.845 4.356,1.495l-1.365,8.45l-9.881,0c-1.387,0 -2.481,0.173 -3.283,0.52c-0.802,0.347 -1.365,0.964 -1.69,1.852c-0.325,0.889 -0.488,2.178 -0.488,3.868c0,1.69 0.163,2.99 0.488,3.9c0.325,0.91 0.888,1.538 1.69,1.885c0.802,0.347 1.896,0.52 3.282,0.52c0.737,0 1.658,-0.01 2.763,-0.033c1.225,-0.026 2.449,-0.069 3.673,-0.13c1.345,-0.065 2.689,-0.162 4.03,-0.292l1.234,8.515c-1.906,0.997 -4.116,1.7 -6.63,2.113c-2.492,0.41 -5.014,0.616 -7.54,0.617c-4.246,0 -7.637,-0.553 -10.172,-1.657c-2.535,-1.106 -4.355,-2.915 -5.46,-5.428c-1.105,-2.513 -1.658,-5.85 -1.658,-10.01c0,-4.203 0.564,-7.55 1.69,-10.042c1.127,-2.492 2.969,-4.29 5.525,-5.395c2.557,-1.106 5.959,-1.658 10.205,-1.658l0.001,0Zm43.355,0c6.414,0 9.62,3.033 9.62,9.1l0,24.31l-13.65,0l0,-19.955c0,-0.737 -0.173,-1.246 -0.52,-1.527c-0.346,-0.282 -0.953,-0.423 -1.82,-0.423c-0.823,0 -1.744,0.065 -2.762,0.195c-1.018,0.13 -2.35,0.477 -3.998,1.04l-1.43,-5.915c2.297,-2.297 4.713,-4.008 7.248,-5.135c2.535,-1.127 4.973,-1.69 7.313,-1.69l-0.001,0Zm-11.7,-12.09l0.065,9.685c0,1.95 -0.14,3.824 -0.422,5.623c-0.282,1.798 -0.596,3.239 -0.942,4.322l1.3,0.78l0,25.09l-13.65,0l0,-45.5l13.65,0l-0.001,0Zm40.56,13l0,32.5l-13.585,0l0,-32.5l13.585,0Zm-3.9,-14.885c2.644,0 3.965,1.343 3.965,4.03l0,3.315c0,2.687 -1.321,4.03 -3.965,4.03l-5.785,0c-2.643,0 -3.965,-1.343 -3.965,-4.03l0,-3.315c0,-2.687 1.322,-4.03 3.965,-4.03l5.785,0Zm35.1,13.975c6.414,0 9.62,3.033 9.62,9.1l0,24.31l-13.65,0l0,-19.955c0,-0.737 -0.173,-1.246 -0.52,-1.527c-0.346,-0.282 -0.953,-0.423 -1.82,-0.423c-0.823,0 -1.744,0.065 -2.762,0.195c-1.018,0.13 -2.35,0.477 -3.998,1.04l-0.65,-6.695c2.167,-2.037 4.442,-3.553 6.825,-4.55c2.384,-0.997 4.702,-1.495 6.955,-1.495Zm-14.625,0.91l1.69,6.63l1.236,0.78l0,25.09l-13.65,0l0,-32.5l10.724,0Zm46.93,-0.91c6.11,0 10.444,0.975 13,2.925c2.557,1.95 3.857,4.832 3.9,8.645c0.044,3.033 -0.855,5.222 -2.697,6.565c-1.842,1.343 -5.146,2.015 -9.913,2.015l-17.485,0l0,-6.435l13.65,0c1.474,0 2.406,-0.14 2.796,-0.422c0.39,-0.282 0.584,-0.965 0.584,-2.048c0,-1.04 -0.26,-1.712 -0.78,-2.015c-0.52,-0.303 -1.408,-0.455 -2.665,-0.455c-1.256,-0.043 -2.21,0.087 -2.86,0.39c-0.65,0.303 -1.094,0.964 -1.332,1.982c-0.238,1.019 -0.358,2.611 -0.358,4.778c0,1.993 0.141,3.553 0.423,4.68c0.282,1.127 0.834,1.928 1.658,2.405c0.823,0.477 2.036,0.715 3.64,0.715c1.3,0 3.13,-0.043 5.492,-0.13c2.362,-0.087 4.93,-0.282 7.702,-0.585l1.236,8.19c-1.55,0.792 -3.185,1.403 -4.875,1.82c-1.762,0.438 -3.555,0.742 -5.363,0.91c-1.842,0.173 -3.738,0.26 -5.688,0.26c-4.506,0 -8.125,-0.628 -10.855,-1.885c-2.73,-1.257 -4.69,-3.13 -5.882,-5.622c-1.192,-2.492 -1.788,-5.58 -1.788,-9.263c0,-4.29 0.607,-7.702 1.82,-10.237c1.214,-2.536 3.175,-4.366 5.883,-5.493c2.708,-1.127 6.294,-1.69 10.757,-1.69Z" style="fill-rule:nonzero;"/></g></g></svg>